# AST/ASF file generated using VICON BodyLanguage
# -----------------------------------------------
:version 1.10
:name VICON
:units
  mass 1.0
  length 0.45
  angle deg
:documentation
   .ast/.asf automatically generated from VICON data using
   VICON BodyBuilder and BodyLanguage model FoxedUp or BRILLIANT.MOD
:root
   order TX TY TZ RX RY RZ
   axis XYZ
   position 0 0 0  
   orientation 0 0 0 
:bonedata
  begin
     id 1 
     name lhipjoint
     direction 0.627412 -0.730575 0.26947 
     length 2.49821 
     axis 0 0 0  XYZ
  end
  begin
     id 2 
     name lfemur
     direction 0.34202 -0.939693 0  
     length 6.89165  
     axis 0 0 20  XYZ
    dof rx ry rz
    limits (-160.0 20.0)
           (-70.0 70.0)
           (-60.0 70.0)
  end
  begin
     id 3 
     name ltibia
     direction 0.34202 -0.939693 0   
     length 7.91287   
     axis 0 0 20   XYZ
    dof rx
    limits (-10.0 170.0)
  end
  begin
     id 4 
     name lfoot
     direction 0.0941675 -0.258723 0.96135   
     length 2.16919   
     axis -90 7.62852e-016 20   XYZ
    dof rx rz
    limits (-45.0 90.0)
           (-70.0 20.0)
  end
  begin
     id 5 
     name ltoes
     direction 1.5347e-011 -4.21941e-011 1   
     length 1.08535   
     axis -90 7.62852e-016 20   XYZ
    dof rx
    limits (-90.0 20.0)
  end
  begin
     id 6 
     name rhipjoint
     direction -0.614241 -0.740361 0.27308   
     length 2.46519  
     axis 0 0 0  XYZ 
  end
  begin
     id 7 
     name rfemur
     direction -0.34202 -0.939693 0   
     length 7.27512   
     axis 0 0 -20   XYZ
    dof rx ry rz
    limits (-160.0 20.0)
           (-70.0 70.0)
           (-70.0 60.0)
  end
  begin
     id 8 
     name rtibia
     direction -0.34202 -0.939693 0   
     length 7.89523   
     axis 0 0 -20   XYZ
    dof rx
    limits (-10.0 170.0)
 end
 begin
     id 9 
     name rfoot
     direction -0.0860444 -0.236405 0.967837   
     length 2.29534  
     axis -90 -7.62852e-016 -20   XYZ
    dof rx rz
    limits (-45.0 90.0)
           (-20.0 70.0)
  end
  begin
     id 10 
     name rtoes
     direction -1.53608e-011 -4.21861e-011 1   
     length 1.14915   
     axis -90 -7.62852e-016 -20   XYZ
    dof rx
    limits (-90.0 20.0)
  end
  begin
     id 11 
     name lowerback
     direction -0.00734074 0.997215 -0.0742143   
     length 2.13469   
     axis 0 0 0   XYZ
    dof rx ry rz
    limits (-20.0 45.0)
           (-30.0 30.0)
           (-30.0 30.0)
  end
  begin
     id 12 
     name upperback
     direction 0.0285728 0.99958 -0.00488656   
     length 2.13416   
     axis 0 0 0   XYZ
    dof rx ry rz
    limits (-20.0 45.0)
           (-30.0 30.0)
           (-30.0 30.0)
  end
  begin
     id 13 
     name thorax
     direction 0.0316844 0.999056 0.0297249   
     length 2.14463   
     axis 0 0 0   XYZ
    dof rx ry rz
    limits (-20.0 45.0)
           (-30.0 30.0)
           (-30.0 30.0)
  end
  begin
     id 14 
     name lowerneck
     direction -0.0281545 0.996802 0.0747864   
     length 1.79004   
     axis 0 0 0   XYZ
    dof rx ry rz
    limits (-20.0 45.0)
           (-30.0 30.0)
           (-30.0 30.0)
  end
  begin
     id 15 
     name upperneck
     direction -0.00100185 0.982732 -0.185031   
     length 1.79988   
     axis 0 0 0   XYZ
    dof rx ry rz
    limits (-20.0 45.0)
           (-30.0 30.0)
           (-30.0 30.0)
  end
  begin
     id 16
     name head
     direction 0.00403747 0.997539 -0.0700022  
     length 1.81696  
     axis 0 0 0   XYZ
    dof rx ry rz
    limits (-20.0 45.0)
           (-30.0 30.0)
           (-30.0 30.0)
  end
  begin
     id 17 
     name lclavicle
     direction 0.959882 0.242905 -0.140082  
     length 3.87755  
     axis 0 0 0   XYZ
    dof ry rz
    limits (-20.0 10.0)
           (0.0 20.0)
  end
  begin
     id 18 
     name lhumerus
     direction 1 -4.4895e-011 3.76166e-027   
     length 5.14601   
     axis 180 -30 -90   XYZ
    dof rx ry rz
    limits (-60.0 90.0)
           (-90.0 90.0)
           (-90.0 90.0)
  end
  begin
     id 19
     name lradius
     direction 1 -4.48966e-011 -3.24039e-027   
     length 3.64452   
     axis 180 -30 -90   XYZ
    dof rx
    limits (-10.0 170.0)
  end
  begin
     id 20
     name lwrist
     direction 1 -4.48999e-011 2.57119e-027   
     length 1.82226   
     axis -1.61769e-015 90 90   XYZ
    dof ry
    limits (-180.0 0.0)
 end
  begin
     id 21 
     name lhand
     direction 1 -4.48961e-011 5.13984e-027   
     length 0.56228   
     axis -3.27988e-015 90 90   XYZ
    dof rx rz
    limits (-90.0 90.0)
           (-45.0 45.0)
  end
  begin
     id 22 
     name lfingers
     direction 1 -4.48991e-011 1.02836e-026   
     length 0.453325   
     axis -6.5598e-015 90 90   XYZ
    dof rx
    limits (0.0 90.0)
  end
  begin
     id 23
     name lthumb
     direction 0.707107 -6.34956e-011 0.707107   
     length 0.650886   
     axis -90 45 2.19363e-014   XYZ
    dof rx rz
    limits (-45.0 45.0)
           (-45.0 45.0)
  end
  begin
     id 24 
     name rclavicle
     direction -0.929201 0.345171 -0.132073   
     length 3.55416  
     axis 0 0 0   XYZ 
    dof ry rz
    limits (-10.0 20.0)
           (-20.0 0.0)
  end
  begin
     id 25 
     name rhumerus
     direction -1 -4.48979e-011 4.53734e-027  
     length 5.33913   
     axis 180 30 90   XYZ
    dof rx ry rz
    limits (-90.0 60.0)
           (-90.0 90.0)
           (-90.0 90.0)
  end
  begin
     id 26 
     name rradius
     direction -1 -4.4896e-011 -2.24007e-027   
     length 3.56478   
     axis 180 30 90   XYZ
    dof rx
    limits (-10.0 170.0)
  end
  begin
     id 27 
     name rwrist
     direction -1 -4.48923e-011 2.56866e-027   
     length 1.78239   
     axis -1.61769e-015 -90 -90   XYZ
    dof ry
    limits (-180.0 0.0)
  end
  begin
     id 28
     name rhand
     direction -1 -4.48914e-011 5.13667e-027   
     length 0.857474   
     axis -3.27988e-015 -90 -90   XYZ
    dof rx rz
    limits (-90.0 90.0)
           (-45.0 45.0)
  end
  begin
     id 29
     name rfingers
     direction -1 -4.49112e-011 1.02998e-026   
     length 0.691318   
     axis -6.5598e-015 -90 -90   XYZ
    dof rx
    limits (0.0 90.0)
  end
  begin
     id 30
     name rthumb
     direction -0.707107 -6.34979e-011 0.707107   
     length 0.992598   
     axis -90 -45 -2.19363e-014   XYZ
    dof rx rz
    limits (-45.0 45.0)
           (-45.0 45.0)
  end
:hierarchy
  begin
    root lhipjoint rhipjoint lowerback
    lhipjoint lfemur
    lfemur ltibia
    ltibia lfoot
    lfoot ltoes
    rhipjoint rfemur
    rfemur rtibia
    rtibia rfoot
    rfoot rtoes
    lowerback upperback
    upperback thorax
    thorax lowerneck lclavicle rclavicle
    lowerneck upperneck
    upperneck head
    lclavicle lhumerus
    lhumerus lradius
    lradius lwrist
    lwrist lhand lthumb
    lhand lfingers
    rclavicle rhumerus
    rhumerus rradius
    rradius rwrist
    rwrist rhand rthumb
    rhand rfingers
  end

#!OML:ASF F:\VICON\USERDATA\INSTALL\Justin4\Justin4.ASF
:FULLY-SPECIFIED
:DEGREES
1044
root -2.668 16.0963 -1.16538 -4.74579 -2.70443 -2.9726
lowerback 16.515 -0.496445 -2.62176
upperback 3.21813 -1.03274 1.19835
thorax -5.7444 -0.457552 2.97956
lowerneck -12.5874 -1.57802 -6.91138
upperneck 17.0762 -1.57774 4.34499
head 7.40869 -0.804952 2.40776
rclavicle -2.55935e-014 1.96797e-014
rhumerus -10.9328 -1.0572 -77.9076
rradius 143.088
rwrist 5.75795
rhand -17.21 22.8941
rfingers 7.12502
rthumb 9.03274 -6.89254
lclavicle -2.55935e-014 1.96797e-014
lhumerus 0.700576 -10.3153 87.8678
lradius 133.514
lwrist 10.7225
lhand -7.14946 7.58959
lfingers 7.12502
lthumb 18.7271 36.7081
rfemur -15.8951 -15.4643 -2.95699
rtibia 59.6342
rfoot -13.1472 12.9047
rtoes -31.789
lfemur -19.2034 -4.74815 9.9627
ltibia 56.3087
lfoot -0.491511 -9.95325
ltoes -41.0424
1045
root -2.69043 16.1478 -1.15422 -5.116 -4.44442 -2.8973
lowerback 16.6036 -0.507937 -1.95759
upperback 3.2036 -0.917634 1.50124
thorax -5.82216 -0.410083 2.90271
lowerneck -12.5873 -1.21181 -6.4701
upperneck 17.1155 -1.05765 3.76274
head 7.38546 -0.582246 2.19532
rclavicle 3.72721e-016 9.93923e-016
rhumerus -10.2631 -0.753532 -77.6134
rradius 143.007
rwrist 5.66032
rhand -17.1864 23.1829
rfingers 7.12502
rthumb 9.05546 -6.60273
lclavicle 3.72721e-016 9.93923e-016
lhumerus 0.44515 -10.0606 87.6955
lradius 133.921
lwrist 10.5659
lhand -7.19854 8.32649
lfingers 7.12502
lthumb 18.6799 37.4496
rfemur -16.0988 -15.2944 -3.23017
rtibia 59.1447
rfoot -12.0619 14.8521
rtoes -28.961
lfemur -18.3841 -4.78978 9.77331
ltibia 56.8402
lfoot -0.0450402 -9.91204
ltoes -40.6499
1046
root -2.70767 16.1892 -1.14048 -5.5084 -6.2285 -2.83955
lowerback 16.6446 -0.534123 -1.26452
upperback 3.28331 -0.810255 1.89232
thorax -5.77064 -0.369766 2.90226
lowerneck -12.9055 -0.773178 -6.01668
upperneck 17.261 -0.402025 3.0795
head 7.45249 -0.302526 1.96291
rclavicle -2.52829e-014 1.5207e-014
rhumerus -9.344 -0.295068 -77.2026
rradius 142.717
rwrist 4.6578
rhand -17.2397 23.8983
rfingers 7.12502
rthumb 9.00408 -5.88956
lclavicle -2.52829e-014 1.5207e-014
lhumerus 0.239174 -9.8078 87.5398
lradius 134.289
lwrist 10.2696
lhand -7.59206 9.41226
lfingers 7.12502
lthumb 18.3013 38.5713
rfemur -16.2719 -15.0219 -3.44101
rtibia 58.5965
rfoot -10.702 16.2014
rtoes -24.825
lfemur -17.4591 -4.8544 9.52385
ltibia 57.3837
lfoot -0.205997 -9.99769
ltoes -40.4137
1047
root -2.72395 16.2296 -1.11921 -5.87375 -8.10006 -2.69814
lowerback 16.6326 -0.56782 -0.652795
upperback 3.31032 -0.725674 2.30636
thorax -5.74292 -0.338088 2.97723
lowerneck -12.9953 -0.250717 -5.49459
upperneck 17.4161 0.363774 2.26873
head 7.48633 0.0192059 1.68864
rclavicle -2.42517e-014 -1.39149e-015
rhumerus -8.58175 0.190524 -76.7022
rradius 142.557
rwrist 3.57591
rhand -17.0251 23.9787
rfingers 7.12502
rthumb 9.21108 -5.80015
lclavicle -2.42517e-014 -1.39149e-015
lhumerus -0.0548779 -9.41931 87.3564
lradius 134.664
lwrist 10.2099
lhand -8.00377 10.0795
lfingers 7.12502
lthumb 17.9052 39.2753
rfemur -16.4376 -14.5957 -3.66309
rtibia 57.9805
rfoot -9.87344 16.8291
rtoes -21.6832
lfemur -16.4794 -4.88528 9.0977
ltibia 57.9344
lfoot -0.772359 -10.4133
ltoes -39.8576
1048
root -2.73914 16.2618 -1.08926 -6.17672 -10.0304 -2.48379
lowerback 16.3608 -0.581873 -0.024367
upperback 3.43093 -0.621724 2.69219
thorax -5.47573 -0.300446 3.00103
lowerneck -12.8857 0.202665 -5.04121
upperneck 17.4161 1.03262 1.48667
head 7.4479 0.293968 1.4233
rclavicle -3.97569e-016 5.00937e-014
rhumerus -7.43868 0.0243052 -76.2516
rradius 143.906
rwrist -1.1983
rhand -10.7419 19.4655
rfingers 7.12502
rthumb 15.2691 -9.95091
lclavicle -3.97569e-016 5.00937e-014
lhumerus -0.328256 -8.96025 87.1556
lradius 134.974
lwrist 10.2986
lhand -8.1964 10.0625
lfingers 7.12502
lthumb 17.7199 39.2752
rfemur -16.6557 -14.1097 -3.89542
rtibia 57.3361
rfoot -9.94515 15.6853
rtoes -21.6393
lfemur -15.5013 -4.76639 8.53646
ltibia 58.4919
lfoot -1.79675 -11.323
ltoes -40.5148
1049
root -2.75369 16.2755 -1.06297 -6.52083 -12.0137 -2.35557
lowerback 16.4302 -0.554551 0.684414
upperback 3.52536 -0.445271 3.12366
thorax -5.42391 -0.225226 3.02136
lowerneck -12.9058 0.623594 -4.66927
upperneck 17.484 1.66348 0.803481
head 7.46291 0.553654 1.20164
rclavicle 3.02153e-014 -1.98785e-014
rhumerus -6.39 -0.0195868 -75.8387
rradius 143.946
rwrist -2.60289
rhand -8.09271 17.5016
rfingers 7.12502
rthumb 17.8196 -11.702
lclavicle 3.02153e-014 -1.98785e-014
lhumerus -0.700148 -8.54046 87.0532
lradius 135.288
lwrist 10.4408
lhand -8.42545 9.0953
lfingers 7.12502
lthumb 17.4994 38.3277
rfemur -16.8198 -13.4384 -3.99503
rtibia 56.7493
rfoot -10.0985 11.7986
rtoes -22.9293
lfemur -14.4335 -4.50531 8.09898
ltibia 59.0018
lfoot -3.01021 -12.5565
ltoes -41.4728
1050
root -2.77055 16.2808 -1.04103 -6.82238 -13.9746 -2.2021
lowerback 16.7599 -0.494353 1.23375
upperback 3.5092 -0.235067 3.63003
thorax -5.62931 -0.12889 3.21361
lowerneck -13.059 1.05019 -4.37899
upperneck 17.7892 2.30958 0.231881
head 7.58373 0.820079 1.03537
rclavicle -2.23633e-014 4.77083e-015
rhumerus -5.81737 0.0111474 -75.1653
rradius 143.488
rwrist -2.67635
rhand -8.09268 17.8966
rfingers 7.12502
rthumb 17.8197 -11.307
lclavicle -2.23633e-014 4.77083e-015
lhumerus -1.12365 -8.11961 87.0848
lradius 135.613
lwrist 10.711
lhand -8.71837 7.8823
lfingers 7.12502
lthumb 17.2175 37.1395
rfemur -17.0765 -12.6643 -4.04785
rtibia 56.2862
rfoot -9.66675 6.83537
rtoes -22.7256
lfemur -13.4815 -4.1943 7.67066
ltibia 59.4159
lfoot -3.83147 -13.9918
ltoes -40.5881
1051
root -2.79036 16.2798 -1.01271 -7.04578 -15.8929 -1.91963
lowerback 16.7014 -0.393874 1.69655
upperback 3.64739 -0.00996856 4.07443
thorax -5.46064 -0.0274016 3.37522
lowerneck -13.223 1.43833 -4.04498
upperneck 17.9286 2.86929 -0.215692
head 7.65784 1.06237 0.893396
rclavicle -2.62396e-014 4.92986e-014
rhumerus -5.13327 -0.0455591 -74.5417
rradius 142.817
rwrist -2.2062
rhand -9.30019 18.9908
rfingers 7.12502
rthumb 16.6575 -10.3145
lclavicle -2.62396e-014 4.92986e-014
lhumerus -1.16077 -7.80424 87.0473
lradius 135.778
lwrist 11.0988
lhand -8.95811 7.47955
lfingers 7.12502
lthumb 16.9868 36.7568
rfemur -17.5714 -11.9348 -4.17187
rtibia 56.0012
rfoot -9.02838 2.57274
rtoes -22.3217
lfemur -12.6501 -3.71049 7.0683
ltibia 59.7703
lfoot -4.88189 -15.5767
ltoes -40.1405
1052
root -2.81341 16.2614 -0.984745 -7.36078 -17.7521 -1.60969
lowerback 16.6017 -0.315474 2.22291
upperback 3.89058 0.178828 4.41777
thorax -5.15535 0.0547583 3.39836
lowerneck -13.0363 1.76929 -3.46958
upperneck 17.6669 3.29682 -0.787541
head 7.55034 1.25636 0.65033
rclavicle -2.44505e-014 -5.725e-014
rhumerus -4.35137 9.04911e-005 -74.2581
rradius 141.929
rwrist -0.987611
rhand -10.8463 19.7096
rfingers 7.12502
rthumb 15.1685 -9.71448
lclavicle -2.44505e-014 -5.725e-014
lhumerus -1.0522 -7.57848 86.8684
lradius 135.861
lwrist 11.5256
lhand -9.26136 7.51082
lfingers 7.12502
lthumb 16.6948 36.8129
rfemur -18.0975 -11.0424 -4.32004
rtibia 55.9863
rfoot -8.29197 -0.557491
rtoes -22.6589
lfemur -11.8082 -3.16927 6.43686
ltibia 60.0844
lfoot -6.44066 -17.3255
ltoes -41.8087
1053
root -2.83957 16.2286 -0.960568 -7.72672 -19.332 -1.17934
lowerback 16.7817 -0.321607 2.48681
upperback 3.93833 0.238234 4.80819
thorax -5.20417 0.0786767 3.65793
lowerneck -12.4242 2.0879 -2.9687
upperneck 17.3126 3.70185 -1.36211
head 7.34177 1.44034 0.410241
rclavicle -3.91606e-014 3.65764e-014
rhumerus -3.90961 0.208326 -73.9178
rradius 141.192
rwrist -0.115548
rhand -11.727 19.8525
rfingers 7.12502
rthumb 14.3201 -9.63362
lclavicle -3.91606e-014 3.65764e-014
lhumerus -1.2917 -7.28953 86.8019
lradius 136.012
lwrist 11.7871
lhand -9.45387 7.42135
lfingers 7.12502
lthumb 16.5095 36.739
rfemur -18.5236 -10.1444 -4.70207
rtibia 56.2776
rfoot -7.5046 -2.2586
rtoes -21.1011
lfemur -11.2981 -2.86648 5.67296
ltibia 60.3101
lfoot -6.86827 -19.0915
ltoes -40.5896
1054
root -2.86908 16.1809 -0.935897 -8.07544 -20.8236 -0.59047
lowerback 16.8802 -0.320065 2.58196
upperback 3.9808 0.272363 5.1445
thorax -5.21435 0.0920429 3.96044
lowerneck -11.8373 2.48662 -2.59747
upperneck 17.0397 4.19252 -1.63997
head 7.15916 1.68441 0.295935
rclavicle -7.99114e-014 9.22361e-014
rhumerus -3.45856 0.335681 -73.639
rradius 140.457
rwrist 0.645327
rhand -12.2334 20.0788
rfingers 7.12502
rthumb 13.8321 -9.44126
lclavicle -7.99114e-014 9.22361e-014
lhumerus -1.32747 -7.01999 86.6148
lradius 136.087
lwrist 11.98
lhand -9.59374 7.17597
lfingers 7.12502
lthumb 16.3748 36.5047
rfemur -19.0292 -9.23992 -5.32835
rtibia 56.8577
rfoot -6.33657 -2.93363
rtoes -15.473
lfemur -10.9773 -2.51738 4.74369
ltibia 60.4709
lfoot -6.89197 -20.8174
ltoes -38.8077
1055
root -2.90316 16.1165 -0.911689 -8.51225 -22.3442 0.146358
lowerback 16.87 -0.258346 2.59739
upperback 4.18226 0.346327 5.34537
thorax -4.99829 0.123992 4.14932
lowerneck -11.6327 2.89001 -1.98357
upperneck 16.9977 4.67629 -1.9613
head 7.12917 1.92923 0.134131
rclavicle 4.13472e-014 -4.77083e-014
rhumerus -2.7484 0.286549 -73.6258
rradius 139.601
rwrist 1.45858
rhand -12.4315 20.4548
rfingers 7.12502
rthumb 13.6412 -9.07818
lclavicle 4.13472e-014 -4.77083e-014
lhumerus -0.977819 -6.80976 86.2793
lradius 136.018
lwrist 12.1571
lhand -9.76418 7.31025
lfingers 7.12502
lthumb 16.2107 36.6525
rfemur -19.6776 -8.26487 -6.07324
rtibia 57.6793
rfoot -4.82973 -2.87212
rtoes -9.53325
lfemur -10.555 -2.06161 3.66517
ltibia 60.5702
lfoot -7.61221 -22.2318
ltoes -39.1838
1056
root -2.94434 16.043 -0.886518 -9.13602 -23.7702 1.0025
lowerback 17.1405 -0.263507 2.24076
upperback 4.1968 0.305284 5.69196
thorax -5.12941 0.10484 4.74355
lowerneck -11.0132 3.30762 -1.51752
upperneck 16.9478 5.2441 -2.54008
head 7.0335 2.18663 -0.0864617
rclavicle 8.34896e-015 3.65764e-014
rhumerus -2.34084 0.816215 -73.5245
rradius 138.806
rwrist 1.60758
rhand -12.5238 20.7018
rfingers 7.12502
rthumb 13.5522 -8.83719
lclavicle 8.34896e-015 3.65764e-014
lhumerus -1.30337 -6.23234 86.317
lradius 136.023
lwrist 12.1402
lhand -9.80991 7.93282
lfingers 7.12502
lthumb 16.1667 37.2786
rfemur -20.2741 -7.39383 -6.89834
rtibia 58.6672
rfoot -3.65505 -1.89215
rtoes -9.05249
lfemur -10.0693 -1.67943 2.46384
ltibia 60.5393
lfoot -7.72026 -23.1098
ltoes -39.4284
1057
root -2.99088 15.9517 -0.867635 -9.82108 -25.2217 1.80446
lowerback 17.6905 -0.219923 2.04644
upperback 4.13552 0.372354 5.95726
thorax -5.49755 0.139825 5.14441
lowerneck -10.3705 3.61811 -1.1212
upperneck 16.8937 5.65524 -2.97703
head 6.93025 2.37929 -0.266417
rclavicle 3.06128e-014 8.74653e-014
rhumerus -2.3826 1.0593 -73.4391
rradius 138.346
rwrist 1.51385
rhand -12.9108 20.8737
rfingers 7.12502
rthumb 13.1792 -8.68974
lclavicle 3.06128e-014 8.74653e-014
lhumerus -1.79443 -5.76203 86.3589
lradius 136.033
lwrist 12.3452
lhand -9.53206 8.28664
lfingers 7.12502
lthumb 16.4342 37.6105
rfemur -20.8727 -6.56596 -7.58507
rtibia 59.7663
rfoot -3.51521 -0.777266
rtoes -15.0813
lfemur -9.54933 -1.20594 1.41423
ltibia 60.4685
lfoot -7.77161 -23.6115
ltoes -39.4007
